      <svg
        xmlns="http://www.w3.org/2000/svg"
        class="svg svg-sin-caja"
        viewBox="0 0 136.1 45.7"
      >
        <path d="M122.9 39.3c-.1-3.6 2.8-6.7 6.4-6.8 3.6-.1 6.7 2.8 6.8 6.4.1 3.6-2.8 6.7-6.4 6.8h-.2c-3.6.1-6.6-2.8-6.6-6.4"></path>
        <path d="M122.9 39.3c-.1-3.6 2.8-6.7 6.4-6.8 3.6-.1 6.7 2.8 6.8 6.4.1 3.6-2.8 6.7-6.4 6.8h-.2c-3.6.1-6.6-2.8-6.6-6.4zM123.8 0h11.8v29.5h-11.8zM59.9 5.6c1.2 1.5 1.7 4.2 1.7 6.6l-.1 19.3c-.2 5-3.1 10.5-7.7 12.2-4.6 2.1-11.8 1.8-15.8-1.3-3.4-2.5-5.4-6.4-5.5-10.6V10.4c.3-3.1 1.9-6.4 4.5-7.8 1.9-1.2 4-2 6.3-2.1C48-.1 56.4-.1 59.9 5.6m-11.2 5.3c-.7-.6-1.7-.7-2.5-.4-.7.3-1.3 1-1.4 1.8v19c.2.8.8 1.5 1.5 1.7.6.2 1.2.1 1.8 0 .8-.3 1.2-1 1.2-1.9V12.3c0-.6-.2-1-.6-1.4M113.7.3c.3.1 7.1 44.3 7.1 44.5s-11.2 0-11.2 0l-1.2-6.6h-8.5l-1.3 6.6H87.1S95.6.3 95.5.3h18.2m-7.2 28.1S104 15.7 104 15.6s0-.2-2.6 12.8h5.1M78.1 33.2h7.2v11.6H66.1V.3h12v32.9M11.9 16.2h4.7V.4h11.7v44.4H16.7V27.4H12v17.4H0V.4h11.9z"></path>
      </svg>